<?xml version="1.0" encoding="utf-8"?>
<!-- Generator: Adobe Illustrator 27.5.0, SVG Export Plug-In . SVG Version: 6.00 Build 0)  -->
<svg version="1.1" xmlns="http://www.w3.org/2000/svg" xmlns:xlink="http://www.w3.org/1999/xlink" x="0px" y="0px"
	 viewBox="0 0 3710 3710" style="enable-background:new 0 0 3710 3710;" xml:space="preserve">
<g id="Background">
	<g>
		<g>
			<rect style="fill:#FFFFFF;" width="3710" height="3710"/>
		</g>
	</g>
</g>
<g id="Illustration">
	<g>
		<linearGradient id="SVGID_1_" gradientUnits="userSpaceOnUse" x1="3405.6377" y1="3587.8459" x2="1498.26" y2="1557.4122">
			<stop  offset="0" style="stop-color:#DAE3FE"/>
			<stop  offset="1" style="stop-color:#E9EFFD"/>
		</linearGradient>
		<path style="fill:url(#SVGID_1_);" d="M2832.949,2773.244c-70.413,72.579-133.415,115.243-181.652,147.452
			c-470.447,314.121-1008.219,223.584-1174.484,192.638c-268.249-49.927-494.689-85.148-689.241-260.918
			c-442.081-399.403-420.579-1232.586-82.775-1748.707c40.053-61.197,377.346-561.169,916.282-631.619
			c13.182-1.723,23.017-2.704,31.631-3.616c83.372-8.827,600.013-55.416,1021.282,297.524
			c60.303,50.521,157.347,141.649,247.338,280.634C3250.38,1554.823,3251.422,2341.899,2832.949,2773.244z"/>
		<g>
			<g>
				
					<linearGradient id="SVGID_00000068650614322909208670000012044434548706136235_" gradientUnits="userSpaceOnUse" x1="512.4064" y1="1254.2589" x2="1124.3881" y2="1254.2589">
					<stop  offset="0" style="stop-color:#4F52FF"/>
					<stop  offset="1" style="stop-color:#4042E2"/>
				</linearGradient>
				<path style="fill:url(#SVGID_00000068650614322909208670000012044434548706136235_);" d="M995.58,1852.937
					c0,0,6.178-259.729-113.451-329.245c-119.628-69.515-347.085-112.976-355.611-485.923
					c-4.992-218.34-10.394-313.802-14.015-355.427c-1.412-16.238,13.017-29.344,29.034-26.327
					c113.298,21.344,481.356,109.195,558.522,360.411C1191.539,1314.245,995.58,1852.937,995.58,1852.937z"/>
				<g style="opacity:0.7;">
					<path style="fill:#7D97F4;" d="M629.157,759.781c124.368,110.918,268.176,307.221,344.827,503.524
						c9.839,32.352,38.619,101.152,51.118,223.391c11.163,101.95,5.614,209.68-7.922,280.992c-0.856,4.508-5.204,7.469-9.713,6.613
						c-7.752-1.47-6.721-9.808-6.651-9.545c15.458-121.838,9.042-273.486-26.379-410.317
						c-45.254-168.012-146.187-330.905-250.585-469.062l-10.743-13.604c-80.883-103.873-97.911-104.639-90.35-111.879
						C624.544,758.183,627.34,758.168,629.157,759.781z"/>
				</g>
			</g>
			<g>
				<path style="fill:#7D97F4;" d="M1187.827,2352.302c16.185,7.937-153.226-205.1-206.295-539.689
					c-25.007-157.667-25.334-355.211-115.148-431.337c-74.75-63.358-329.112-23.358-412.339-8.157
					c-10.4,1.899-13.901,15.036-5.806,21.836c39.912,33.519,125.292,112.583,147.538,192.265
					c29.322,105.026,129.173,171.829,218.565,189.908c89.392,18.079,139.118,35.624,182.668,178.581
					C1040.559,2098.666,1141.838,2329.752,1187.827,2352.302z"/>
				<path style="fill:#91B3FA;" d="M571.1,1417.495c106.185,4.447,220.167,52.885,278.009,143.746l5.459,8.67
					c12.609,20.33,84.071,164.85,123.76,284.65c0.494,1.494-0.315,3.105-1.808,3.6c-2.537,0.84-3.807-1.952-3.565-1.705
					c-27.653-67.678-67.368-153.483-99-217.648c-33.922-70.018-57.661-117.436-135.035-162.855
					c-86.12-48.915-168.394-53.95-168.148-53.9c-1.256-0.128-2.17-1.25-2.042-2.506
					C568.854,1418.339,569.904,1417.447,571.1,1417.495z"/>
			</g>
		</g>
		<g>
			<g>
				
					<linearGradient id="SVGID_00000081617717947432237640000006473947492236443562_" gradientUnits="userSpaceOnUse" x1="1623.0967" y1="2932.5518" x2="2184.7402" y2="1247.6166">
					<stop  offset="0" style="stop-color:#09005D"/>
					<stop  offset="1" style="stop-color:#1A0F91"/>
				</linearGradient>
				<path style="fill:url(#SVGID_00000081617717947432237640000006473947492236443562_);" d="M3073.306,2993.676
					c0,24.163-19.789,43.934-43.976,43.934H651.281c-24.187,0-43.976-19.77-43.976-43.934l-19.788-1366.599
					c0-24.164,28.469-71.337,80.643-67.792l2324.092-60.136c30.347-0.785,59.689,10.895,81.18,32.316
					c21.49,21.42,33.249,50.707,32.532,81.027L3073.306,2993.676z"/>
				
					<linearGradient id="SVGID_00000062179165954745262880000010029521178128531372_" gradientUnits="userSpaceOnUse" x1="3381.1628" y1="1465.5026" x2="-3663.3337" y2="5344.5581">
					<stop  offset="0" style="stop-color:#FF928E"/>
					<stop  offset="1" style="stop-color:#FE7062"/>
				</linearGradient>
				<path style="fill:url(#SVGID_00000062179165954745262880000010029521178128531372_);" d="M3029.89,2951.527
					c0,22.882-18.722,41.604-41.604,41.604H708.629c-22.882,0-41.604-18.722-41.604-41.604l-18.673-1240.61
					c2.199-74.657,67.653-101.49,107.33-99.905l2227.496-59.76c21.321-0.572,41.941,7.636,57.035,22.705
					c15.095,15.068,23.339,35.674,22.804,56.995L3029.89,2951.527z"/>
				<g>
					<path style="fill:#FFFFFF;" d="M691.661,2359.977c-2.141,0-3.893-1.719-3.925-3.868l-1.478-100.613
						c-0.031-2.168,1.7-3.95,3.868-3.983c2.096-0.117,3.952,1.7,3.983,3.868l1.478,100.613c0.031,2.168-1.7,3.95-3.868,3.983
						H691.661z"/>
					<path style="fill:#FFFFFF;" d="M688.041,2113.425c-2.141,0-3.893-1.719-3.925-3.869l-5.659-385.34
						c0.118-25.905,8.105-46.6,23.74-61.583c28.409-27.22,72.826-25.853,74.701-25.78l711.282-19.089
						c2.147-0.193,3.971,1.651,4.03,3.819c0.058,2.168-1.652,3.972-3.819,4.029l-711.512,19.089
						c-2.023-0.08-43.22-1.342-69.25,23.603c-14.039,13.453-21.214,32.252-21.321,55.872l5.659,385.266
						c0.032,2.168-1.7,3.951-3.868,3.984C688.08,2113.425,688.06,2113.425,688.041,2113.425z"/>
				</g>
				<path style="opacity:0.23;fill:#FFFFFF;" d="M767.458,2882.704c2.387-102.538,1.498-1010.537-4.386-1088.956
					c-5.883-78.419,116.249-93.128,303.759-101.953s1769.606-43.765,1810.342-47.068c91.565-7.424,110.517,129.436,101.357,426.551
					c-6.882,223.218-18.289,590.934-23.537,760.036c-1.563,50.352-42.717,90.302-93.093,90.44
					c-380.718,1.046-1839.894,5.229-1937.032,8.121C813.082,2933.205,766.512,2923.363,767.458,2882.704z"/>
			</g>
			
				<linearGradient id="SVGID_00000100382228567414834700000017783988026806916495_" gradientUnits="userSpaceOnUse" x1="1999.7346" y1="1447.816" x2="1856.9999" y2="3181.0059">
				<stop  offset="0" style="stop-color:#09005D"/>
				<stop  offset="1" style="stop-color:#1A0F91"/>
			</linearGradient>
			<path style="fill:url(#SVGID_00000100382228567414834700000017783988026806916495_);" d="M3206.186,3151.054H522.635
				c-33.02,0-60.037-27.017-60.037-60.037l0,0c0-33.02,27.017-60.037,60.037-60.037h2683.551c33.02,0,60.037,27.017,60.037,60.037
				l0,0C3266.223,3124.038,3239.207,3151.054,3206.186,3151.054z"/>
		</g>
		<g>
			<path style="fill:#91B3FA;" d="M2674.883,668.56l-1595.217-9.766c-52.426-0.321-94.355,43.469-91.759,95.832l109.747,2266.422
				h1775.179l98.565-2024.926L2674.883,668.56z"/>
			
				<linearGradient id="SVGID_00000066490000040130620630000004815863815177555589_" gradientUnits="userSpaceOnUse" x1="2824.5474" y1="740.7194" x2="2446.8755" y2="1197.308" gradientTransform="matrix(0.9994 0.0343 -0.0343 0.9994 56.5304 -41.0612)">
				<stop  offset="0" style="stop-color:#4F52FF"/>
				<stop  offset="1" style="stop-color:#4042E2"/>
			</linearGradient>
			<path style="fill:url(#SVGID_00000066490000040130620630000004815863815177555589_);" d="M2741.216,986.412
				c-51.964-1.828-91.913-46.615-87.818-98.448l17.101-216.418l301.213,323.246L2741.216,986.412z"/>
			<g>
				<g>
					<path style="opacity:0.78;fill:#FFFFFF;" d="M1902.489,1103.686c131.109-0.639,634.435-3.989,761.533-4.839
						c16.032-0.107,28.707,16.562,28.011,36.792l0,0c-0.662,19.257-13.266,34.65-28.527,34.84l-761.203,9.497
						c-14.662,0.183-26.839-13.765-28.092-32.179l-0.317-4.658C1872.462,1122.084,1885.723,1103.767,1902.489,1103.686z"/>
				</g>
				<g>
					<path style="opacity:0.78;fill:#FFFFFF;" d="M1896.049,1262.662c131.109-0.639,634.435-3.989,761.533-4.839
						c16.031-0.107,28.707,16.562,28.011,36.792l0,0c-0.662,19.257-13.266,34.65-28.527,34.84l-761.203,9.497
						c-14.662,0.183-26.839-13.765-28.092-32.178l-0.317-4.658C1866.023,1281.061,1879.284,1262.743,1896.049,1262.662z"/>
				</g>
				<g>
					<path style="opacity:0.78;fill:#FFFFFF;" d="M1326.43,1486.707c221.162,0.156,1070.167-0.146,1284.555-0.226
						c27.042-0.01,48.993,16.744,48.508,36.981l0,0c-0.462,19.263-21.2,34.587-46.939,34.685l-1283.839,4.888
						c-24.73,0.094-45.748-13.935-48.488-32.365l-0.693-4.663C1276.401,1504.933,1298.15,1486.687,1326.43,1486.707z"/>
				</g>
				<g>
					<path style="opacity:0.78;fill:#FFFFFF;" d="M1316.212,1653.55c172.151-0.747,833.018-4.513,999.898-5.468
						c21.05-0.12,38.021,16.542,37.503,36.778l0,0c-0.492,19.262-16.741,34.669-36.777,34.872l-999.373,10.127
						c-19.25,0.195-35.514-13.746-37.519-32.163l-0.507-4.659C1277.144,1671.979,1294.199,1653.646,1316.212,1653.55z"/>
				</g>
				<g>
					<path style="opacity:0.78;fill:#FFFFFF;" d="M1324.256,1872.004c221.162,0.155,1070.167-0.146,1284.555-0.226
						c27.042-0.01,48.993,16.744,48.508,36.981l0,0c-0.462,19.263-21.2,34.588-46.939,34.685l-1283.839,4.888
						c-24.729,0.094-45.747-13.935-48.487-32.365l-0.693-4.662C1274.227,1890.23,1295.975,1871.984,1324.256,1872.004z"/>
				</g>
				<g>
					<path style="opacity:0.78;fill:#FFFFFF;" d="M1305.014,2041.625c172.964,0.315,836.958,0.627,1004.627,0.701
						c21.149,0.009,38.102,16.776,37.463,37.009l0,0c-0.608,19.259-17.024,34.566-37.155,34.645l-1004.127,3.961
						c-19.342,0.076-35.599-13.966-37.506-32.394l-0.482-4.662C1265.653,2059.812,1282.896,2041.585,1305.014,2041.625z"/>
				</g>
				<g>
					<path style="opacity:0.78;fill:#FFFFFF;" d="M1313.352,2265.163c221.162,0.156,1070.167-0.146,1284.555-0.226
						c27.042-0.01,48.993,16.744,48.508,36.98l0,0c-0.462,19.263-21.2,34.587-46.939,34.685l-1283.839,4.889
						c-24.729,0.094-45.748-13.935-48.487-32.365l-0.693-4.663C1263.323,2283.389,1285.071,2265.143,1313.352,2265.163z"/>
				</g>
				<g style="opacity:0.74;">
					<path style="opacity:0.78;fill:#FFFFFF;" d="M1299.995,2432.778c172.964,0.315,836.958,0.627,1004.628,0.702
						c21.149,0.01,38.102,16.776,37.462,37.009l0,0c-0.608,19.259-17.024,34.565-37.155,34.645l-1004.127,3.961
						c-19.342,0.076-35.6-13.966-37.506-32.394l-0.482-4.662C1260.635,2450.965,1277.878,2432.738,1299.995,2432.778z"/>
				</g>
				<path style="opacity:0.48;fill:#FFFFFF;" d="M1326.43,2653.755c221.162,0.156,1070.167-0.146,1284.555-0.226
					c27.042-0.01,48.993,16.744,48.508,36.981l0,0c-0.462,19.263-21.2,34.587-46.939,34.685l-1283.839,4.889
					c-24.73,0.094-45.748-13.935-48.488-32.365l-0.693-4.663C1276.401,2671.981,1298.15,2653.735,1326.43,2653.755z"/>
				<path style="opacity:0.36;fill:#FFFFFF;" d="M1313.919,2839.526c170.78,0.009,826.386-0.855,991.938-1.077
					c20.882-0.028,37.637,16.708,37.026,36.942l0,0c-0.582,19.26-16.775,34.595-36.652,34.71l-991.44,5.738
					c-19.097,0.111-35.164-13.902-37.064-32.327l-0.481-4.661C1275.073,2857.783,1292.08,2839.525,1313.919,2839.526z"/>
			</g>
			<g style="opacity:0.78;">
				<path style="fill:#FFFFFF;" d="M1475.674,1167.612l-53.624,162.416h-68.95l175.438-516.359h80.443l176.205,516.359h-71.25
					l-55.161-162.416H1475.674z M1644.986,1115.518l-50.561-148.626c-11.496-33.708-19.156-64.354-26.815-94.232h-1.533
					c-7.66,30.645-16.089,62.057-26.046,93.466l-50.564,149.393H1644.986z"/>
			</g>
		</g>
		<g>
			<g>
				
					<linearGradient id="SVGID_00000160153211470665531960000012343483205524267176_" gradientUnits="userSpaceOnUse" x1="1951.4869" y1="2127.6963" x2="1666.0356" y2="3498.8799">
					<stop  offset="0" style="stop-color:#4F52FF"/>
					<stop  offset="1" style="stop-color:#4042E2"/>
				</linearGradient>
				<path style="fill:url(#SVGID_00000160153211470665531960000012343483205524267176_);" d="M1660.939,3259.319
					c-1.535,0-3.095-0.335-4.596-1.038c-5.907-2.774-8.637-10.25-6.095-16.698l244.221-619.668c2.54-6.446,9.385-9.422,15.299-6.652
					c5.908,2.773,8.637,10.25,6.095,16.698l-244.221,619.667C1669.746,3256.437,1665.452,3259.319,1660.939,3259.319z"/>
				
					<linearGradient id="SVGID_00000137828059594733350760000002350960154260652162_" gradientUnits="userSpaceOnUse" x1="1981.0968" y1="2133.8608" x2="1695.6466" y2="3505.0393">
					<stop  offset="0" style="stop-color:#4F52FF"/>
					<stop  offset="1" style="stop-color:#4042E2"/>
				</linearGradient>
				<path style="fill:url(#SVGID_00000137828059594733350760000002350960154260652162_);" d="M1936.064,3259.319
					c-4.513,0-8.807-2.879-10.702-7.691L1681.14,2631.96c-2.541-6.448,0.188-13.924,6.095-16.698
					c5.904-2.774,12.756,0.202,15.299,6.652l244.221,619.668c2.541,6.448-0.188,13.924-6.095,16.698
					C1939.161,3258.983,1937.599,3259.319,1936.064,3259.319z"/>
				
					<linearGradient id="SVGID_00000035511983892595100220000011739662767548709020_" gradientUnits="userSpaceOnUse" x1="2947.8525" y1="2335.1187" x2="2662.4014" y2="3706.302">
					<stop  offset="0" style="stop-color:#4F52FF"/>
					<stop  offset="1" style="stop-color:#4042E2"/>
				</linearGradient>
				<path style="fill:url(#SVGID_00000035511983892595100220000011739662767548709020_);" d="M2700.485,3259.319
					c-1.535,0-3.095-0.335-4.596-1.038c-5.908-2.774-8.637-10.25-6.095-16.698l244.221-619.668
					c2.542-6.446,9.384-9.422,15.299-6.652c5.908,2.773,8.637,10.25,6.095,16.698l-244.221,619.667
					C2709.292,3256.437,2704.998,3259.319,2700.485,3259.319z"/>
				
					<linearGradient id="SVGID_00000017474101370109645050000003207244341573138107_" gradientUnits="userSpaceOnUse" x1="2977.4607" y1="2341.2825" x2="2692.0105" y2="3712.4607">
					<stop  offset="0" style="stop-color:#4F52FF"/>
					<stop  offset="1" style="stop-color:#4042E2"/>
				</linearGradient>
				<path style="fill:url(#SVGID_00000017474101370109645050000003207244341573138107_);" d="M2975.609,3259.319
					c-4.512,0-8.807-2.879-10.703-7.691l-244.221-619.667c-2.542-6.448,0.188-13.924,6.095-16.698
					c5.904-2.774,12.755,0.202,15.299,6.652l244.221,619.668c2.542,6.448-0.188,13.924-6.095,16.698
					C2978.706,3258.983,2977.144,3259.319,2975.609,3259.319z"/>
			</g>
			<g>
				
					<linearGradient id="SVGID_00000175286863963238037950000009832537708372609671_" gradientUnits="userSpaceOnUse" x1="2315.5801" y1="3420.939" x2="2648.6228" y2="2822.8225">
					<stop  offset="0" style="stop-color:#4F52FF"/>
					<stop  offset="1" style="stop-color:#4042E2"/>
				</linearGradient>
				
					<rect x="2536.709" y="2841.748" style="fill:url(#SVGID_00000175286863963238037950000009832537708372609671_);" width="28.875" height="312.266"/>
				
					<linearGradient id="SVGID_00000088097068174124104130000008900979110087070117_" gradientUnits="userSpaceOnUse" x1="2383.2495" y1="3458.6184" x2="2716.292" y2="2860.5022">
					<stop  offset="0" style="stop-color:#4F52FF"/>
					<stop  offset="1" style="stop-color:#4042E2"/>
				</linearGradient>
				<path style="fill:url(#SVGID_00000088097068174124104130000008900979110087070117_);" d="M2677.599,3160.035h-252.903v-1.358
					c0-9.631,7.807-17.438,17.438-17.438h216.669C2669.183,3141.239,2677.599,3149.654,2677.599,3160.035z"/>
				
					<linearGradient id="SVGID_00000052798136762779083750000002329408082377175988_" gradientUnits="userSpaceOnUse" x1="2242.458" y1="3380.2239" x2="2575.5002" y2="2782.1084">
					<stop  offset="0" style="stop-color:#4F52FF"/>
					<stop  offset="1" style="stop-color:#4042E2"/>
				</linearGradient>
				<path style="fill:url(#SVGID_00000052798136762779083750000002329408082377175988_);" d="M2715.132,2830.91
					c0,17.079-13.973,31.052-31.052,31.052h-255.873c-17.079,0-31.052-13.974-31.052-31.052v-28.077
					c0-17.079,13.974-31.052,31.052-31.052h255.873c17.079,0,31.052,13.973,31.052,31.052V2830.91z"/>
			</g>
			<g>
				
					<linearGradient id="SVGID_00000067228322537068818280000006835831858400036525_" gradientUnits="userSpaceOnUse" x1="2454.97" y1="3277.9138" x2="2356.4165" y2="2880.3027">
					<stop  offset="0" style="stop-color:#FEBBBA"/>
					<stop  offset="1" style="stop-color:#FF928E"/>
				</linearGradient>
				<path style="fill:url(#SVGID_00000067228322537068818280000006835831858400036525_);" d="M2337.977,2633.538
					c0,0-42.907,6.652-91.148,38.9c-7.592,5.075-11.757,13.923-10.613,22.983c5.776,45.756,29.528,193.856,107.846,338.506
					c4.13,7.627,5.317,16.506,3.494,24.986l-13.606,63.322l-25.233,23.66h64.995l43.275-117.11l-18.504-5.852
					c-14.347-4.537-24.192-17.733-24.452-32.779l-2.171-125.627c1.852-55.97-34.319-94.587-34.319-94.587l103.8-5.05
					L2337.977,2633.538z"/>
				
					<linearGradient id="SVGID_00000031173655787724368420000003233058549301478789_" gradientUnits="userSpaceOnUse" x1="2361.6511" y1="3023.4978" x2="2331.4529" y2="3486.5354">
					<stop  offset="0" style="stop-color:#4F52FF"/>
					<stop  offset="1" style="stop-color:#4042E2"/>
				</linearGradient>
				<path style="fill:url(#SVGID_00000031173655787724368420000003233058549301478789_);" d="M2283.338,3157.319
					c-5.919,7.747,63.708,17.97,98.885,1.025c0,0,48.763-84.841,48.763-128.524c0,0-3.871-8.906-32.503-6.887
					c0,0-16.373,100.457-33.662,111.71c-17.289,11.253-48.37,1.138-48.37,1.138S2292.071,3145.889,2283.338,3157.319z"/>
				
					<linearGradient id="SVGID_00000085250568373717513790000004522278909943380624_" gradientUnits="userSpaceOnUse" x1="2248.7869" y1="2892.8604" x2="2884.283" y2="2566.6157">
					<stop  offset="0" style="stop-color:#FEBBBA"/>
					<stop  offset="1" style="stop-color:#FF928E"/>
				</linearGradient>
				<path style="fill:url(#SVGID_00000085250568373717513790000004522278909943380624_);" d="M2428.207,2771.78
					c-0.552-0.956-111.756-13.372-111.756-13.372s3.639,33.812-7.735,80.357c-11.374,46.545-174.646,248.203-174.646,248.203
					l17.119,54.27c-52.931,18.438-104.998,21.386-156.232,9.398l106.096-63.668c0,0,99.294-338.374,160.114-398.74l111.469-38.564
					L2428.207,2771.78z"/>
				
					<linearGradient id="SVGID_00000067920129623322725740000010019479625253047954_" gradientUnits="userSpaceOnUse" x1="2146.7429" y1="2677.7307" x2="2632.1062" y2="2677.7307">
					<stop  offset="0" style="stop-color:#09005D"/>
					<stop  offset="1" style="stop-color:#1A0F91"/>
				</linearGradient>
				<path style="fill:url(#SVGID_00000067920129623322725740000010019479625253047954_);" d="M2677.599,2574.892
					c0,0,64.07,95.296,69.327,138.765c5.258,43.469-17.55,61.133-84.776,64.045c-67.226,2.913-246.691,2.866-246.691,2.866
					l-153.171-130.904c0,0,111.624-39.831,140.646-51.093C2431.956,2587.309,2677.599,2574.892,2677.599,2574.892z"/>
				
					<linearGradient id="SVGID_00000013153336815907914770000006723153025359036323_" gradientUnits="userSpaceOnUse" x1="2070.2427" y1="3004.4934" x2="2040.0446" y2="3467.5298">
					<stop  offset="0" style="stop-color:#4F52FF"/>
					<stop  offset="1" style="stop-color:#4042E2"/>
				</linearGradient>
				<path style="fill:url(#SVGID_00000013153336815907914770000006723153025359036323_);" d="M2144.721,3122.962
					c0,0,18.431,17.852,5.981,37.714c0,0-146.005,25.879-185.646,14.137c0,0,8.231-18.787,52.869-40.171l-3.294,2.529
					c-4.168,3.199-1.723,9.864,3.523,9.565C2047.568,3145.059,2108.44,3139.67,2144.721,3122.962z"/>
			</g>
			<g>
				
					<linearGradient id="SVGID_00000070810135606600037890000001295966383673421491_" gradientUnits="userSpaceOnUse" x1="2353.3884" y1="1943.4734" x2="2779.1157" y2="2318.5742">
					<stop  offset="0" style="stop-color:#09005D"/>
					<stop  offset="1" style="stop-color:#1A0F91"/>
				</linearGradient>
				<path style="fill:url(#SVGID_00000070810135606600037890000001295966383673421491_);" d="M2459.317,2016.47
					c10.003-1.664,46.802-6.196,52.885,15.873c0.807,2.928,4.447,3.913,6.709,1.888c11.603-10.384,38.964-29.898,68.967-16.133
					c26.49,12.153,24.04,37.464,19.463,52.988c-1.105,3.749,2.986,6.867,6.228,4.685c23.112-15.564,76.368-43.36,110.483,2.457
					c31.813,42.726,5.865,72.385-11.597,85.864c-2.954,2.281-1.55,6.967,2.164,7.333c12.737,1.255,30.294,8.266,38.366,35.506
					c12.652,42.696-65.67,78.179-74.892,82.191c-0.584,0.254-1.204,0.361-1.84,0.328l-158.205-8.107
					c-1.233-0.063-2.374-0.674-3.11-1.666l-97.051-130.741c-0.785-1.058-1.02-2.426-0.632-3.684l38.812-125.921
					C2456.53,2017.833,2457.772,2016.727,2459.317,2016.47z"/>
				
					<linearGradient id="SVGID_00000183210165183766781740000013748011356181540001_" gradientUnits="userSpaceOnUse" x1="1880.181" y1="3353.8711" x2="2573.4517" y2="2381.9343">
					<stop  offset="0" style="stop-color:#FF928E"/>
					<stop  offset="1" style="stop-color:#FE7062"/>
				</linearGradient>
				<path style="fill:url(#SVGID_00000183210165183766781740000013748011356181540001_);" d="M2504.329,2562.277
					c0,0-74.609-71.044-111.335-118.098c-19.852-25.436-26.087-58.921-16.906-89.853c16.767-56.49,46.566-114.998,49.283-124.104
					c4.165-13.958,87.822-13.377,87.822-13.377s164.619,106.84,229.299,287.818l-72.639,22.614c0,0-42.982-72.111-85.451-117.957
					c0,0,73.487,97.078,76.074,136.819L2504.329,2562.277z"/>
				
					<linearGradient id="SVGID_00000047036790797888317730000008788558256331828611_" gradientUnits="userSpaceOnUse" x1="2481.5884" y1="2309.1189" x2="2459.918" y2="2170.0681">
					<stop  offset="0" style="stop-color:#FEBBBA"/>
					<stop  offset="1" style="stop-color:#FF928E"/>
				</linearGradient>
				<path style="fill:url(#SVGID_00000047036790797888317730000008788558256331828611_);" d="M2415.254,2152.215
					c0.873,2.901,22.708,75.287,24.416,76.789c1.708,1.503,47.885,3.986,69.62-10.869l-36.874-77.192L2415.254,2152.215z"/>
				<g>
					
						<linearGradient id="SVGID_00000013889779897168447450000002808540787515599541_" gradientUnits="userSpaceOnUse" x1="450.5492" y1="4070.5291" x2="641.9755" y2="4200.5542" gradientTransform="matrix(0.7443 -0.6678 0.6678 0.7443 -715.8221 -601.6025)">
						<stop  offset="0" style="stop-color:#FEBBBA"/>
						<stop  offset="1" style="stop-color:#FF928E"/>
					</linearGradient>
					<path style="fill:url(#SVGID_00000013889779897168447450000002808540787515599541_);" d="M2353.546,2050.115
						c0,0-18.223,38.713-0.132,99.009c18.092,60.296,50.553,66.503,71.677,52.401c21.124-14.103,48.741-39.621,53.768-93.569
						C2483.886,2054.009,2378.509,2001.208,2353.546,2050.115z"/>
					
						<linearGradient id="SVGID_00000022550272093836115860000013616254718805070492_" gradientUnits="userSpaceOnUse" x1="2326.1724" y1="1974.3629" x2="2751.8982" y2="2349.4624">
						<stop  offset="0" style="stop-color:#09005D"/>
						<stop  offset="1" style="stop-color:#1A0F91"/>
					</linearGradient>
					<path style="fill:url(#SVGID_00000022550272093836115860000013616254718805070492_);" d="M2438.653,2103.175
						c0,0-33.52-81.888-89.17-33.278l-4.825,20.655c0,0-51.035-16.285-32.646-62.417c18.388-46.132,79.198-82.641,133.325-50.669
						c54.127,31.972,73.45,74.972,69.158,117.357c-4.293,42.385-35.674,26.851-35.674,26.851s-5.147-31.423-19.929-37.441
						c-14.783-6.018-15.204,17.631-15.204,17.631L2438.653,2103.175z"/>
					
						<linearGradient id="SVGID_00000083787768855318118740000002830821152035584921_" gradientUnits="userSpaceOnUse" x1="462.0237" y1="4053.635" x2="653.4498" y2="4183.6602" gradientTransform="matrix(0.7443 -0.6678 0.6678 0.7443 -715.8221 -601.6025)">
						<stop  offset="0" style="stop-color:#FEBBBA"/>
						<stop  offset="1" style="stop-color:#FF928E"/>
					</linearGradient>
					<path style="fill:url(#SVGID_00000083787768855318118740000002830821152035584921_);" d="M2451.019,2104.55
						c0,0-17.478-41.993,8.87-42.665c26.348-0.672,14.348,40.402,8.633,55.347L2451.019,2104.55z"/>
				</g>
				
					<linearGradient id="SVGID_00000170254479863146256750000006349220653681583293_" gradientUnits="userSpaceOnUse" x1="2605.9966" y1="2549.8855" x2="3012.9817" y2="2549.8855">
					<stop  offset="0" style="stop-color:#FEBBBA"/>
					<stop  offset="1" style="stop-color:#FF928E"/>
				</linearGradient>
				<path style="fill:url(#SVGID_00000170254479863146256750000006349220653681583293_);" d="M2352.332,2567.552l54.816-52.836
					l75.832,32.035c0,0,75.483,11.695,118.684,0c43.202-11.695,43.202-11.695,43.202-11.695l97.626-30.393l15.333,43.333
					c3.893,11.002-0.019,23.216-9.532,29.976c-8.447,6.001-18.347,12.598-24.657,15.358c-12.856,5.625-316.926-3.891-316.926-3.891
					L2352.332,2567.552z"/>
			</g>
			<g>
				
					<linearGradient id="SVGID_00000014593364846039193430000017736388055096619931_" gradientUnits="userSpaceOnUse" x1="2525.2908" y1="2690.9844" x2="2269.0906" y2="2761.2021" gradientTransform="matrix(0.9988 -0.0494 0.0494 0.9988 -41.469 -55.0328)">
					<stop  offset="0" style="stop-color:#09005D"/>
					<stop  offset="1" style="stop-color:#1A0F91"/>
				</linearGradient>
				<path style="fill:url(#SVGID_00000014593364846039193430000017736388055096619931_);" d="M2559.777,2592.461
					c-0.243,0.012-0.486,0.019-0.731,0.017l-317.983-0.347c-7.861-0.007-14.226-6.386-14.218-14.247
					c0.008-7.863,6.41-14.359,14.25-14.218l317.983,0.347c7.861,0.007,14.226,6.386,14.218,14.247
					C2573.286,2585.875,2567.297,2592.089,2559.777,2592.461z"/>
				
					<linearGradient id="SVGID_00000178927065127361536620000004266702903587441027_" gradientUnits="userSpaceOnUse" x1="2266.9714" y1="2342.4656" x2="2085.1855" y2="2534.6018">
					<stop  offset="0" style="stop-color:#09005D"/>
					<stop  offset="1" style="stop-color:#1A0F91"/>
				</linearGradient>
				<path style="fill:url(#SVGID_00000178927065127361536620000004266702903587441027_);" d="M1955.21,2303.752h264.818
					c19.536,0,37.317,11.273,45.65,28.943l122.425,259.596h-329.098c-12.59,0-23.901-7.692-28.528-19.401l-94.936-240.217
					C1930.056,2318.793,1940.286,2303.752,1955.21,2303.752z"/>
				<path style="fill:#91B3FA;" d="M2141.777,2436.854c5.739,17.829,1.499,35.145-9.469,38.675
					c-10.968,3.53-24.512-8.061-30.251-25.89c-5.739-17.83-1.499-35.145,9.469-38.676
					C2122.495,2407.434,2136.039,2419.025,2141.777,2436.854z"/>
			</g>
			
				<linearGradient id="SVGID_00000091007778816260439860000003101734989187449528_" gradientUnits="userSpaceOnUse" x1="2256.5947" y1="2681.9709" x2="1971.144" y2="4053.1516">
				<stop  offset="0" style="stop-color:#4F52FF"/>
				<stop  offset="1" style="stop-color:#4042E2"/>
			</linearGradient>
			<path style="fill:url(#SVGID_00000091007778816260439860000003101734989187449528_);" d="M3004.196,2604.077
				c0.803-3.605-0.29-7.333-2.981-10.165c-2.69-2.833-6.697-4.473-10.925-4.473h-1432.2c-5.56,0-10.737,2.461-13.732,6.53
				c-2.995,4.068-3.397,9.182-1.066,13.565l15.52,29.173c3.554,6.681,11.254,10.958,19.728,10.958h1401.923
				c7.883,0,14.658-4.854,16.155-11.576L3004.196,2604.077z"/>
		</g>
	</g>
</g>
</svg>
